<svg xmlns="http://www.w3.org/2000/svg" version="1.1" xmlns:xlink="http://www.w3.org/1999/xlink" xmlns:svgjs="http://svgjs.com/svgjs" width="1440" height="560" preserveAspectRatio="none" viewBox="0 0 1440 560"><g mask="url(&quot;#SvgjsMask1014&quot;)" fill="none"><path d="M676.18 627.16C793.69 621.55 858.72 432.59 1097.91 418.37 1337.1 404.15 1397.85 180.78 1519.64 171.97" stroke="rgba(51,121,194,0.58)" stroke-width="2"></path><path d="M210.9 616.26C347.88 605.63 440.42 334.33 681.84 333 923.27 331.67 917.31 403 1152.79 403 1388.26 403 1504.7 333.19 1623.73 333" stroke="rgba(51,121,194,0.58)" stroke-width="2"></path><path d="M277.38 600.99C431.94 600.43 565.24 487.05 884.09 482.18 1202.93 477.31 1324.44 214.06 1490.79 207.78" stroke="rgba(51,121,194,0.58)" stroke-width="2"></path><path d="M194.72 670.92C391.43 661.67 543.45 323.92 901.5 323.17 1259.54 322.42 1429.15 440.37 1608.27 440.77" stroke="rgba(51,121,194,0.58)" stroke-width="2"></path><path d="M687.55 601.52C777.27 594.24 744.67 421.36 994.58 413.45 1244.49 405.54 1447.09 214.41 1608.65 211.85" stroke="rgba(51,121,194,0.58)" stroke-width="2"></path></g><defs><mask id="SvgjsMask1014"><rect width="1440" height="560" fill="#ffffff"></rect></mask></defs></svg>